<svg width="18" height="18" viewBox="0 0 18 18" fill="none" xmlns="http://www.w3.org/2000/svg">
<path d="M11 17.5H7C6.80189 17.4974 6.61263 17.4176 6.47253 17.2775C6.33244 17.1374 6.25259 16.9481 6.25 16.75V9L0.899997 1.69C0.815438 1.58007 0.763946 1.44832 0.751549 1.31018C0.739152 1.17204 0.766363 1.03323 0.829996 0.91C0.893745 0.787121 0.989845 0.683987 1.10792 0.611731C1.226 0.539475 1.36157 0.500841 1.5 0.5H16.5C16.6384 0.500841 16.774 0.539475 16.8921 0.611731C17.0101 0.683987 17.1062 0.787121 17.17 0.91C17.2336 1.03323 17.2608 1.17204 17.2484 1.31018C17.236 1.44832 17.1846 1.58007 17.1 1.69L11.75 9V16.75C11.7474 16.9481 11.6676 17.1374 11.5275 17.2775C11.3874 17.4176 11.1981 17.4974 11 17.5ZM7.75 16H10.25V8.75C10.2492 8.59066 10.302 8.43568 10.4 8.31L15 2H3L7.62 8.31C7.71795 8.43568 7.77079 8.59066 7.77 8.75L7.75 16Z" fill="black"/>
</svg>
