<svg width="16" height="16" viewBox="0 0 16 16" fill="none" xmlns="http://www.w3.org/2000/svg">
<path d="M5.50016 15.2917H3.00016C2.71119 15.304 2.42264 15.2592 2.15101 15.1598C1.87937 15.0605 1.63 14.9085 1.41714 14.7127C1.20429 14.5169 1.03214 14.281 0.910542 14.0186C0.788944 13.7562 0.720286 13.4723 0.708496 13.1833V2.81668C0.720286 2.52769 0.788944 2.24386 0.910542 1.98144C1.03214 1.71901 1.20429 1.48314 1.41714 1.28731C1.63 1.09149 1.87937 0.939555 2.15101 0.84021C2.42264 0.740865 2.71119 0.696056 3.00016 0.708348H5.50016C5.66592 0.708348 5.82489 0.774195 5.9421 0.891406C6.05931 1.00862 6.12516 1.16759 6.12516 1.33335C6.12516 1.49911 6.05931 1.65808 5.9421 1.77529C5.82489 1.8925 5.66592 1.95835 5.50016 1.95835H3.00016C2.75272 1.93683 2.5065 2.01138 2.31255 2.16654C2.1186 2.3217 1.99182 2.54555 1.9585 2.79168V13.1833C1.99182 13.4295 2.1186 13.6533 2.31255 13.8085C2.5065 13.9636 2.75272 14.0382 3.00016 14.0167H5.50016C5.66592 14.0167 5.82489 14.0825 5.9421 14.1997C6.05931 14.317 6.12516 14.4759 6.12516 14.6417C6.12516 14.8074 6.05931 14.9664 5.9421 15.0836C5.82489 15.2008 5.66592 15.2667 5.50016 15.2667V15.2917Z" fill="#14AE5C"/>
<path d="M11.3335 11.9583C11.2513 11.9587 11.17 11.9427 11.0941 11.9112C11.0183 11.8797 10.9495 11.8334 10.8918 11.775C10.7748 11.6578 10.709 11.4989 10.709 11.3333C10.709 11.1677 10.7748 11.0088 10.8918 10.8917L13.7835 7.99999L10.8918 5.10832C10.8304 5.0511 10.7811 4.9821 10.747 4.90543C10.7128 4.82877 10.6944 4.74601 10.693 4.66209C10.6915 4.57817 10.7069 4.49481 10.7384 4.41699C10.7698 4.33916 10.8166 4.26847 10.8759 4.20912C10.9353 4.14977 11.006 4.10298 11.0838 4.07155C11.1616 4.04012 11.245 4.02468 11.3289 4.02616C11.4128 4.02764 11.4956 4.04601 11.5722 4.08017C11.6489 4.11433 11.7179 4.16358 11.7751 4.22499L15.1085 7.55832C15.2255 7.67551 15.2912 7.83436 15.2912 7.99999C15.2912 8.16561 15.2255 8.32446 15.1085 8.44165L11.7751 11.775C11.7174 11.8334 11.6486 11.8797 11.5728 11.9112C11.4969 11.9427 11.4156 11.9587 11.3335 11.9583Z" fill="#14AE5C"/>
<path d="M14.6667 8.625H5.5C5.33424 8.625 5.17527 8.55915 5.05806 8.44194C4.94085 8.32473 4.875 8.16576 4.875 8C4.875 7.83424 4.94085 7.67527 5.05806 7.55806C5.17527 7.44085 5.33424 7.375 5.5 7.375H14.6667C14.8324 7.375 14.9914 7.44085 15.1086 7.55806C15.2258 7.67527 15.2917 7.83424 15.2917 8C15.2917 8.16576 15.2258 8.32473 15.1086 8.44194C14.9914 8.55915 14.8324 8.625 14.6667 8.625Z" fill="#14AE5C"/>
</svg>
