<svg xmlns="http://www.w3.org/2000/svg" width="47" height="43" viewBox="0 0 47 43" fill="none">
<g clip-path="url(#clip0_44_6733)">
<path d="M10.2879 25.5598L8.67204 31.0175L2.76613 31.1306C1.00114 28.1687 0 24.7799 0 21.1787C0 17.6964 0.936037 14.4125 2.59523 11.521H2.5965L7.85441 12.3932L10.1577 17.1218C9.67562 18.3933 9.41287 19.7583 9.41287 21.1787C9.41305 22.7202 9.72168 24.1972 10.2879 25.5598Z" fill="#FBBB00"/>
<path d="M46.0154 17.2556C46.282 18.526 46.421 19.8379 46.421 21.1787C46.421 22.6821 46.2463 24.1487 45.9134 25.5633C44.7836 30.3772 41.8312 34.5806 37.7413 37.5552L37.7401 37.5541L31.1174 37.2484L30.1801 31.9545C32.8939 30.5145 35.0148 28.261 36.132 25.5633H23.7207V17.2556H36.3131H46.0154Z" fill="#518EF8"/>
<path d="M37.74 37.5541L37.7413 37.5553C33.7637 40.4479 28.7109 42.1787 23.2105 42.1787C14.3714 42.1787 6.68643 37.7088 2.76611 31.1307L10.2879 25.5599C12.248 30.293 17.2944 33.6622 23.2105 33.6622C25.7534 33.6622 28.1358 33.0403 30.18 31.9545L37.74 37.5541Z" fill="#28B446"/>
<path d="M38.0257 5.01331L30.5065 10.5829C28.3908 9.38639 25.8899 8.6952 23.2105 8.6952C17.1605 8.6952 12.0197 12.219 10.1578 17.1218L2.59648 11.521H2.59521C6.45813 4.78255 14.24 0.178711 23.2105 0.178711C28.8422 0.178711 34.0059 1.99373 38.0257 5.01331Z" fill="#F14336"/>
</g>
<defs>
<clipPath id="clip0_44_6733">
<rect width="46.4211" height="42" fill="white" transform="translate(0 0.178711)"/>
</clipPath>
</defs>
</svg>